<?xml version="1.0" encoding="UTF-8" standalone="no"?>
<svg viewBox="0 0 150 150" xmlns="http://www.w3.org/2000/svg">
<defs>
<linearGradient gradientTransform="matrix(.356,-4.394554e-2,2.947191e-2,.23875,-12.35522,9.06091)" gradientUnits="userSpaceOnUse" id="linearGradient1374" x1="109.53184" x2="370.90094">
<stop offset="0" stop-color="#fff" stop-opacity="0"/>
<stop offset="1" stop-color="#5f0e00" stop-opacity=".41667"/>
</linearGradient>
<linearGradient gradientTransform="matrix(.44692,-5.516943e-2,2.347600e-2,.19018,-12.35522,9.06091)" gradientUnits="userSpaceOnUse" id="linearGradient1379" x1="62.83109" x2="312.91138" y1="339.76996" y2="191.31802">
<stop offset="0" stop-color="#fff" stop-opacity=".525"/>
<stop offset="1" stop-color="#fff" stop-opacity="0"/>
</linearGradient>
</defs>
<path d="m104.3533,22.40196c-6.09609-4.4271 8.03085-9.87071 10.07788-8.27354 3.0953,1.0978-2.23604,2.86584-1.55672,5.37179s1.97935,16.03448 4.98468,16.40344 6.96443,2.47004 7.41429,6.11424c11.89959,21.46941-16.16605,87.82937-104.53525,67.29028-1.59264-.91332-10.73451-9.03414-12.4621-11.04072-1.04374-2.46097-2.90175-8.52115 1.20138-11.2475 36.32065-14.47283 82.07086-.51184 96.30631-47.03587 2.33509-8.05769-1.43046-17.58213-1.43046-17.58213z" fill="#ffe200" fill-rule="evenodd"/>
<path d="m10.83609,92.03186 .27899-3.73417c25.70749-13.53268 78.28717,1.8051 96.62574-47.44527-7.97718,34.28232-26.63934,56.93457-96.90473,51.17944z" fill="url(#linearGradient1379)" fill-rule="evenodd"/>
<path d="m8.10632,96.85031c-.93301-5.32191-1.42296-7.05458 1.452-9.20263 1.59519,1.85279 2.11424,8.13587-1.452,9.20263z" fill="#442400" fill-rule="evenodd"/>
<path d="m39.81844,111.02254c65.75286,8.16203 82.42583-34.77728 85.09926-44.91248 5.12003-12.47118-.50807-25.09546-.50807-25.09546 4.494,39.40234-32.77173,76.19023-84.59119,70.00794z" fill="url(#linearGradient1374)" fill-rule="evenodd"/>
<g transform="matrix(.98655,-.16348,.16348,.98655,1.11889,19.35070)">
<path d="m104.3533,22.40196c-6.09609-4.4271 8.03085-9.87071 10.07788-8.27354 3.0953,1.0978-2.23604,2.86584-1.55672,5.37179s1.97935,16.03448 4.98468,16.40344 6.96443,2.47004 7.41429,6.11424c11.89959,21.46941-16.16605,87.82937-104.53525,67.29028-1.59264-.91332-10.73451-9.03414-12.4621-11.04072-1.04374-2.46097-2.90175-8.52115 1.20138-11.2475 36.32065-14.47283 82.07086-.51184 96.30631-47.03587 2.33509-8.05769-1.43046-17.58213-1.43046-17.58213z" fill="#ffe200" fill-rule="evenodd"/>
<path d="m10.83609,92.03186 .27899-3.73417c25.70749-13.53268 78.28717,1.8051 96.62574-47.44527-7.97718,34.28232-26.63934,56.93457-96.90473,51.17944z" fill="url(#linearGradient1379)" fill-rule="evenodd"/>
<path d="m8.10632,96.85031c-.93301-5.32191-1.42296-7.05458 1.452-9.20263 1.59519,1.85279 2.11424,8.13587-1.452,9.20263z" fill="#442400" fill-rule="evenodd"/>
<path d="m39.81844,111.02254c65.75286,8.16203 82.42583-34.77728 85.09926-44.91248 5.12003-12.47118-.50807-25.09546-.50807-25.09546 4.494,39.40234-32.77173,76.19023-84.59119,70.00794z" fill="url(#linearGradient1374)" fill-rule="evenodd"/>
</g>
<g transform="matrix(.9515,-.30765,.30765,.9515,6.32332,37.29399)">
<path d="m104.3533,22.40196c-6.09609-4.4271 5.85815-10.01812 7.90518-8.42094 3.0953,1.0978-2.14725,3.44964-1.46793,5.95559s4.06326,15.59808 7.06859,15.96704 6.96443,2.47004 7.41429,6.11424c11.89959,21.46941-16.16605,87.82937-104.53525,67.29028-1.59264-.91332-10.73451-9.03414-12.4621-11.04072-1.04374-2.46097-2.90175-8.52115 1.20138-11.2475 36.32065-14.47283 82.07086-.51184 96.30631-47.03587 2.33509-8.05769-1.43046-17.58213-1.43046-17.58213z" fill="#ffe200" fill-rule="evenodd"/>
<path d="m10.83609,92.03186 .27899-3.73417c25.70749-13.53268 78.28717,1.8051 96.62574-47.44527-7.97718,34.28232-26.63934,56.93457-96.90473,51.17944z" fill="url(#linearGradient1379)" fill-rule="evenodd"/>
<path d="m8.10632,96.85031c-.93301-5.32191-1.42296-7.05458 1.452-9.20263 1.59519,1.85279 2.11424,8.13587-1.452,9.20263z" fill="#442400" fill-rule="evenodd"/>
<path d="m39.81844,111.02254c65.75286,8.16203 82.42583-34.77728 85.09926-44.91248 5.12003-12.47118-.50807-25.09546-.50807-25.09546 4.494,39.40234-32.77173,76.19023-84.59119,70.00794z" fill="url(#linearGradient1374)" fill-rule="evenodd"/>
</g>
<path d="m103.60252,18.55872c-1.40502-5.04864 13.70012-7.10093 13.96038-1.3755-2.15969,1.83672-6.4844,6.04604-13.96038,1.3755z" fill="#442400" fill-rule="evenodd"/>
<path d="m112.4375,11c-4.20056.31406-8.70576,2.08833-11.2129,5.60022-1.79302,3.42406 2.49195,5.92156 2.31743,9.44515 1.27037,5.21605 1.07878,10.7963-1.09558,15.74873-3.56746,10.20591-10.49276,19.4545-20.14659,24.58409-12.82293,6.9225-27.62278,8.20599-41.78604,10.32366-11.04156,1.60465-22.21091,3.42192-32.57633,7.70441-4.10599,2.74113-3.64242,8.47311-1.94094,12.48834 1.87337,3.21894 5.28561,5.28859 7.89448,7.91204 2.12802,2.36915 5.39168,4.14081 7.61665,5.5689 .74406,3.88676 4.12335,5.92098 7.22788,7.80955 3.25154,1.95267 6.36567,4.27631 9.88943,5.68992 2.98999.28757 3.40535,5.31215 7.08706,5.68255 4.39079,1.94519 8.7353,4.22938 13.38169,5.44245 21.76304-1.83037 43.90182-7.86677 61.26912-21.6028 15.03116-11.74284 25.58584-29.64509 26.71805-48.86468 .50139-9.50038-.96067-19.94916-7.5164-27.29661-2.03185-3.32092-5.71929-5.53583-9.70541-5.03704-3.51065.4864-4.72122-5.14374-6.62856-7.57043-1.0846-2.87009-6.64767-3.1309-3.94695-6.11196 .84116-3.9687-1.61483-5.22348-3.43985-6.76649-1.23147.11259-2.10666-.84486-3.40625-.75zm.375,2.90625c1.75874.79486 5.3464,2.07606 3.49738,4.92713-1.32246,3.34031 5.19652,7.63114 6.17596,10.59249 2.12246,3.31413 1.74677,4.71975 5.92346,5.86728 3.36691-.76352 7.10496.3627 8.74667,3.5401 5.82094,6.43983 7.23404,15.58885 7.06278,23.97926-.63203,19.46604-11.46676,37.68999-26.88697,49.23117-16.69124,12.66688-37.63171,18.21556-58.23803,19.98758-4.91511-1.75806-9.69229-3.91627-14.34375-6.28125-1.83005-2.12081-2.45205-5.71988-5.97386-4.95223-4.50408-2.47051-8.85111-5.24341-13.02614-8.23527-1.62043-2.51061-1.55093-6.42598-5.41636-6.21756-4.04943-3.19012-7.90993-6.63449-11.52114-10.31369-1.33842-3.04497-2.28222-8.45211 1.94063-9.57591 20.00706-7.51424 41.93198-6.54517 62.21579-12.9524 10.94485-3.4112 21.05328-10.24417 27.08646-20.14323 3.272-5.43846 6.04624-11.36973 7.07916-17.66984 .55777-5.26082-.32021-10.68322-2.33752-15.55381-3.28448-2.14272 1.90414-4.62572 3.84919-5.27542 1.27753-.48803 3.06475-.97155 4.16629-.95438z" fill-rule="evenodd"/>
<path d="m113.05942,46.18442c-.84792,10.76208-6.27932,18.34562-13.46567,24.78433s-16.66873,11.17808-26.59375,15.0625-20.29172,6.92434-29.25,10-17.81749,4.32098-22.16417,10.3125l3.85652-.0735c3.31177-4.96798 9.9903-5.70903 18.91549-8.77333s19.56498-6.35801 29.54533-10.26408 19.01679-8.94663 26.34683-15.51408 12.41262-14.97511 13.28125-26l-.47183.46567z" fill-rule="evenodd"/>
<path d="m121.14525,49.46435c-1.57943-.37141.01438-1.56392-.11031-.60055 .21864,8.25874-3.4891,15.11266-8.49652,21.63839-6.83745,9.0067-15.62681,16.1961-25.31357,21.777-11.38362,6.55741-23.51339,11.71115-34.8477,18.35524-4.01253,2.4533-9.36661,6.16864-12.32258,9.89066 .98676,1.41076 3.42339-.96804 4.29378-1.51322 5.3828-5.15707 11.61307-9.31875 18.14336-12.76977 14.04713-7.21864 28.40801-12.67272 40.55223-23.93343 7.63555-6.13793 13.32859-12.95413 16.0266-22.54759 1.20046-4.19064 2.39043-5.95338 2.0747-10.29673z" fill-rule="evenodd"/>
<path d="m113.19058,26.16725-.34683-.3235c0,0 1.72536,3.09568 3.5,6.875s3.59572,8.30189 3.84375,10.90625l.47183-.09375c-.28014-2.94141-1.61882-7.40564-3.40933-11.21875s-4.05942-6.14525-4.05942-6.14525z" fill-rule="evenodd"/>
<path d="m111.65625,27.84375c-.32292.09375.14642-.34067-.1765-.24692 .79535,2.72372.72423,6.0006 1.26353,8.78743 .24008,1.3107.48526,2.63825.41529,3.97672 .03916.14495-.16804.13326.03814.16269 .27818.102.99667-.98105.91498-1.74895-.37757-3.08108-1.13685-6.09849-1.93962-9.09183-.16717-.61436-.33781-1.22781-.51582-1.83913z" fill-rule="evenodd"/>
</svg>
