<?xml version="1.0" standalone="no"?>
<!DOCTYPE svg PUBLIC "-//W3C//DTD SVG 20010904//EN"
 "http://www.w3.org/TR/2001/REC-SVG-20010904/DTD/svg10.dtd">
<svg version="1.0" xmlns="http://www.w3.org/2000/svg"
 width="700.000000pt" height="700.000000pt" viewBox="0 0 700.000000 700.000000"
 preserveAspectRatio="xMidYMid meet">
<metadata>
Created by potrace 1.11, written by Peter Selinger 2001-2013
</metadata>
<g transform="translate(0.000000,700.000000) scale(0.100000,-0.100000)"
fill="#000000" stroke="none">
<path d="M5160 6474 c-165 -30 -287 -92 -390 -198 -83 -86 -84 -139 -4 -299
30 -60 57 -128 60 -150 3 -23 10 -58 14 -77 18 -70 24 -148 24 -285 -1 -167
-19 -249 -99 -456 -126 -325 -273 -555 -495 -780 -320 -323 -707 -505 -1395
-655 -20 -4 -163 -30 -220 -39 -16 -3 -46 -8 -65 -11 -19 -4 -42 -8 -50 -9
-25 -3 -110 -16 -133 -21 -12 -2 -42 -6 -67 -9 -25 -3 -56 -7 -70 -10 -14 -2
-45 -7 -70 -10 -25 -3 -56 -8 -70 -10 -14 -2 -45 -6 -70 -10 -25 -3 -56 -8
-70 -10 -14 -2 -45 -7 -70 -10 -25 -3 -56 -8 -70 -10 -33 -6 -76 -13 -125 -20
-158 -24 -184 -28 -305 -49 -379 -67 -652 -137 -938 -243 -94 -35 -131 -54
-158 -82 -39 -40 -82 -121 -92 -173 -11 -60 -5 -192 12 -258 32 -126 73 -184
220 -315 49 -44 114 -103 145 -131 144 -133 175 -157 314 -244 42 -27 80 -58
83 -67 52 -153 123 -219 437 -414 48 -30 100 -62 115 -71 15 -10 38 -23 52
-30 14 -7 27 -15 30 -18 6 -7 158 -80 166 -80 31 0 84 -44 137 -114 80 -107
96 -120 164 -146 32 -11 72 -27 88 -35 17 -7 57 -25 90 -40 33 -15 88 -40 121
-55 79 -36 249 -100 267 -100 7 0 18 -5 25 -12 14 -14 100 -18 177 -7 33 4 94
11 135 15 41 3 82 8 91 9 9 2 40 6 70 10 30 3 119 17 199 31 663 113 1238 305
1725 576 153 86 388 240 481 316 5 5 32 26 60 47 115 87 328 292 439 420 33
39 63 72 66 75 3 3 39 50 81 105 225 300 393 619 506 965 32 96 87 316 97 387
4 21 10 63 15 93 24 148 34 483 19 600 -4 30 -10 78 -13 105 -3 28 -8 61 -11
75 -3 14 -9 48 -14 77 -24 127 -81 289 -141 400 -53 99 -80 138 -174 257 -131
164 -226 216 -404 223 -110 3 -113 4 -159 44 -25 21 -113 156 -113 173 0 3
-23 44 -51 91 -47 78 -82 117 -138 155 -113 75 -131 108 -84 161 9 11 14 39
14 78 1 73 -26 136 -75 178 -18 15 -44 38 -59 50 -14 12 -38 24 -54 26 -15 3
-40 10 -54 15 -46 18 -92 20 -169 6z m-757 -2309 c-3 -9 -8 -14 -10 -11 -3 3
-2 9 2 15 9 16 15 13 8 -4z m-80 -80 c-3 -9 -8 -14 -10 -11 -3 3 -2 9 2 15 9
16 15 13 8 -4z m-37 -34 c-10 -11 -45 -41 -79 -67 -75 -58 -65 -44 23 30 69
58 84 68 56 37z m-146 -115 c0 -6 -119 -89 -165 -115 -43 -24 -30 -13 85 66
80 55 80 55 80 49z m-215 -146 c-3 -5 -12 -10 -18 -10 -7 0 -6 4 3 10 19 12
23 12 15 0z m-35 -14 c0 -5 -59 -40 -85 -50 -29 -11 -13 2 37 29 47 26 48 27
48 21z m-150 -80 c0 -2 -7 -7 -16 -10 -8 -3 -12 -2 -9 4 6 10 25 14 25 6z"/>
</g>
</svg>
